# File created by Blade
# Date/Time:  Wed Jan 21 17:05:50 2015
#---------------------------------------------------------
:version 1.10
:name HOM
:units
  mass 1.0
  length 1.000000
  angle deg
:documentation
     Acclaim Skeleton File
:root
   axis xyz
   order TX TY TZ RX RY RZ
   position 0.000000 0.000000 0.000000
   orientation 0 0 0
:bonedata
   begin
      id 1
      name Spine_dum
      direction 0.000000 1.000000 0.000000
      length 7.067664
      axis 0.0 0.0 0.0 xyz
   end
   begin
      id 2
      name LeftUpLeg_dum
      direction 1.000000 0.000000 0.000000
      length 4.013002
      axis 0.0 0.0 0.0 xyz
   end
   begin
      id 3
      name RightUpLeg_dum
      direction -1.000000 0.000000 0.000000
      length 4.013002
      axis 0.0 0.0 0.0 xyz
   end
   begin
      id 4
      name Spine
      direction 0.000000 1.000000 0.000000
      length 0.000000
      axis 0.0 0.0 0.0 xyz
      dof rx ry rz
   end
   begin
      id 5
      name Spine_dum1
      direction 0.000000 1.000000 0.000000
      length 15.039886
      axis 0.0 0.0 0.0 xyz
   end
   begin
      id 6
      name Spine_dum2
      direction 0.000000 1.000000 0.000000
      length 10.530368
      axis 0.0 0.0 0.0 xyz
   end
   begin
      id 7
      name Spine_dum3
      direction 0.000000 1.000000 0.000000
      length 10.530368
      axis 0.0 0.0 0.0 xyz
   end
   begin
      id 8
      name Head
      direction 0.000000 1.000000 0.000000
      length 4.527550
      axis 0.0 0.0 0.0 xyz
      dof rx ry rz
   end
   begin
      id 9
      name LeftShoulder
      direction 1.000000 0.000000 0.000000
      length 7.028855
      axis 0.0 0.0 -90.0 xyz
      dof rx ry rz
   end
   begin
      id 10
      name LeftArm
      direction 1.000000 0.000000 0.000000
      length 10.797705
      axis 0.0 0.0 -90.0 xyz
      dof rx ry rz
   end
   begin
      id 11
      name LeftForeArm
      direction 1.000000 0.000000 0.000000
      length 7.907442
      axis 0.0 0.0 -90.0 xyz
      dof ry rz rx
   end
   begin
      id 12
      name LeftHand
      direction 0.000000 0.000000 0.000000
      length 0.000000
      axis 0.0 0.0 -90.0 xyz
      dof rx ry rz
   end
   begin
      id 13
      name LeftHand_dum1
      direction 0.000000 0.000000 0.000000
      length 0.000000
      axis 0.0 0.0 -90.0 xyz
   end
   begin
      id 14
      name LeftHand_dum2
      direction 1.000000 0.000000 0.000000
      length 3.937000
      axis 0.0 0.0 -90.0 xyz
   end
   begin
      id 15
      name LeftHandThumb1
      direction 0.000000 0.000000 1.000000
      length 3.937000
      axis 0.0 0.0 -90.0 xyz
      dof rx rz ry
   end
   begin
      id 16
      name RightShoulder
      direction -1.000000 0.000000 0.000000
      length 7.028855
      axis 0.0 0.0 90.0 xyz
      dof rx ry rz
   end
   begin
      id 17
      name RightArm
      direction -1.000000 0.000000 0.000000
      length 10.797705
      axis 0.0 0.0 90.0 xyz
      dof rx ry rz
   end
   begin
      id 18
      name RightForeArm
      direction -1.000000 0.000000 0.000000
      length 7.907442
      axis 0.0 0.0 90.0 xyz
      dof ry rz rx
   end
   begin
      id 19
      name RightHand
      direction 0.000000 0.000000 0.000000
      length 0.000000
      axis 0.0 0.0 90.0 xyz
      dof rx ry rz
   end
   begin
      id 20
      name RightHand_dum1
      direction 0.000000 0.000000 0.000000
      length 0.000000
      axis 0.0 0.0 90.0 xyz
   end
   begin
      id 21
      name RightHand_dum2
      direction -1.000000 0.000000 0.000000
      length 3.937000
      axis 0.0 0.0 90.0 xyz
   end
   begin
      id 22
      name RightHandThumb1
      direction 0.000000 0.000000 1.000000
      length 3.937000
      axis 0.0 0.0 90.0 xyz
      dof rx rz ry
   end
   begin
      id 23
      name LeftUpLeg
      direction 0.000000 -1.000000 0.000000
      length 16.899758
      axis 0.0 0.0 0.0 xyz
      dof rx ry rz
   end
   begin
      id 24
      name LeftLeg
      direction 0.000000 -1.000000 0.000000
      length 17.389183
      axis 0.0 0.0 0.0 xyz
      dof rx ry rz
   end
   begin
      id 25
      name LeftFoot
      direction 0.000000 -0.258819 0.965926
      length 4.924528
      axis 15.0 0.0 0.0 xyz
      dof rx ry rz
   end
   begin
      id 26
      name LeftToeBase
      direction 0.000000 0.000000 1.000000
      length 2.952750
      axis 0.0 0.0 0.0 xyz
      dof rx ry rz
   end
   begin
      id 27
      name RightUpLeg
      direction 0.000000 -1.000000 0.000000
      length 16.899758
      axis 0.0 0.0 0.0 xyz
      dof rx ry rz
   end
   begin
      id 28
      name RightLeg
      direction 0.000000 -1.000000 0.000000
      length 17.389183
      axis 0.0 0.0 0.0 xyz
      dof rx ry rz
   end
   begin
      id 29
      name RightFoot
      direction 0.000000 -0.258819 0.965926
      length 4.924528
      axis 15.0 0.0 0.0 xyz
      dof rx ry rz
   end
   begin
      id 30
      name RightToeBase
      direction 0.000000 0.000000 1.000000
      length 2.952750
      axis 0.0 0.0 0.0 xyz
      dof rx ry rz
   end
:hierarchy
   begin
      root Spine_dum LeftUpLeg_dum RightUpLeg_dum
      Spine_dum Spine
      LeftUpLeg_dum LeftUpLeg
      RightUpLeg_dum RightUpLeg
      Spine Spine_dum1 Spine_dum2 Spine_dum3
      Spine_dum1 Head
      Spine_dum2 LeftShoulder
      Spine_dum3 RightShoulder
      LeftShoulder LeftArm
      LeftArm LeftForeArm
      LeftForeArm LeftHand
      LeftHand LeftHand_dum1 LeftHand_dum2
      LeftHand_dum1 LeftHandThumb1
      RightShoulder RightArm
      RightArm RightForeArm
      RightForeArm RightHand
      RightHand RightHand_dum1 RightHand_dum2
      RightHand_dum1 RightHandThumb1
      LeftUpLeg LeftLeg
      LeftLeg LeftFoot
      LeftFoot LeftToeBase
      RightUpLeg RightLeg
      RightLeg RightFoot
      RightFoot RightToeBase
   end

# File created by Blade
# Date/Time:  Wed Jan 21 17:05:57 2015
# Frame Rate: 120.000 fps
#------------------------------------------------------
:FULLY-SPECIFIED
:DEGREES
22
root 19.409377 35.617731 -22.777674 -173.180678 -1.371990 -179.307734
Spine -19.028851 -0.571014 -0.529653
Head 9.015299 -1.281229 1.532421
LeftShoulder -9.571853 -30.728589 16.314236
LeftArm 4.275044 3.762594 -10.650374
LeftForeArm 3.158316 -0.000000 -3.191647
LeftHand -8.854110 -0.000000 -5.202671
LeftHandThumb1 -26.253704 0.000000 33.147579
RightShoulder -10.251012 -6.550250 -6.851109
RightArm 11.670131 35.276954 14.361116
RightForeArm -31.756414 -0.000000 4.372686
RightHand -6.631305 -0.000000 7.230666
RightHandThumb1 -24.326973 -0.000000 -32.862282
LeftUpLeg 0.980543 10.233045 2.707204
LeftLeg -4.599191 -0.000000 0.000000
LeftFoot -19.473496 24.610143 -15.525940
LeftToeBase 23.961676 -0.000000 -0.000000
RightUpLeg 0.053228 -8.315857 -1.136782
RightLeg -2.167636 -0.000000 0.000000
RightFoot -21.196738 -23.357908 18.659459
RightToeBase 22.932214 -0.000000 -0.000000
23
root 19.409272 35.617453 -22.778853 -173.184946 -1.369016 -179.309373
Spine -19.025336 -0.564446 -0.521128
Head 9.017507 -1.256429 1.506978
LeftShoulder -9.573013 -30.738490 16.330345
LeftArm 4.259400 3.772818 -10.662751
LeftForeArm 3.160876 -0.000000 -3.201196
LeftHand -8.864019 -0.000000 -5.200071
LeftHandThumb1 -26.253704 0.000000 33.147579
RightShoulder -10.229760 -6.542588 -6.868685
RightArm 11.630755 35.295473 14.344060
RightForeArm -31.772681 -0.000000 4.363542
RightHand -6.623135 -0.000000 7.219158
RightHandThumb1 -24.326973 -0.000000 -32.862282
LeftUpLeg 0.989449 10.241381 2.706569
LeftLeg -4.603024 -0.000000 0.000000
LeftFoot -19.478344 24.608540 -15.525637
LeftToeBase 23.980181 -0.000000 -0.000000
RightUpLeg 0.062026 -8.316395 -1.140705
RightLeg -2.172790 -0.000000 0.000000
RightFoot -21.201992 -23.351124 18.663235
RightToeBase 22.949307 -0.000000 -0.000000
24
root 19.408350 35.617249 -22.781093 -173.194952 -1.375782 -179.307787
Spine -19.017697 -0.548521 -0.509774
Head 9.015617 -1.256987 1.469347
LeftShoulder -9.553901 -30.736797 16.322434
LeftArm 4.251943 3.754523 -10.671809
LeftForeArm 3.149620 -0.000000 -3.208601
LeftHand -8.878309 -0.000000 -5.189108
LeftHandThumb1 -26.253704 0.000000 33.147579
RightShoulder -10.234723 -6.545860 -6.888799
RightArm 11.604308 35.283616 14.335584
RightForeArm -31.691336 -0.000000 4.354092
RightHand -6.635983 -0.000000 7.151319
RightHandThumb1 -24.326973 -0.000000 -32.862282
LeftUpLeg 1.003230 10.247897 2.710346
LeftLeg -4.605956 -0.000000 0.000000
LeftFoot -19.479155 24.594222 -15.516065
LeftToeBase 24.031052 -0.000000 -0.000000
RightUpLeg 0.081120 -8.325275 -1.141449
RightLeg -2.180708 -0.000000 0.000000
RightFoot -21.199391 -23.348529 18.661165
RightToeBase 22.961470 -0.000000 -0.000000
25
root 19.408022 35.616931 -22.782513 -173.207802 -1.390208 -179.311287
Spine -19.001008 -0.554430 -0.504737
Head 9.003000 -1.244124 1.448426
LeftShoulder -9.553652 -30.756572 16.344757
LeftArm 4.230202 3.765513 -10.693887
LeftForeArm 3.134754 -0.000000 -3.202678
LeftHand -8.892811 -0.000000 -5.189182
LeftHandThumb1 -26.253704 0.000000 33.147579
RightShoulder -10.220803 -6.555499 -6.894928
RightArm 11.575199 35.310762 14.313888
RightForeArm -31.720793 -0.000000 4.341113
RightHand -6.640531 -0.000000 7.134138
RightHandThumb1 -24.326973 -0.000000 -32.862282
LeftUpLeg 1.013264 10.237659 2.710040
LeftLeg -4.600423 -0.000000 0.000000
LeftFoot -19.473967 24.593898 -15.509982
LeftToeBase 23.966760 -0.000000 -0.000000
RightUpLeg 0.102181 -8.357437 -1.148406
RightLeg -2.191930 -0.000000 0.000000
RightFoot -21.181161 -23.327425 18.706447
RightToeBase 22.867091 -0.000000 -0.000000
26
root 19.407318 35.616781 -22.783047 -173.216860 -1.391541 -179.314913
Spine -18.986851 -0.539918 -0.503575
Head 9.002916 -1.222528 1.433952
LeftShoulder -9.539813 -30.755443 16.348359
LeftArm 4.212103 3.749790 -10.708313
LeftForeArm 3.100512 -0.000000 -3.202577
LeftHand -8.872778 0.000000 -5.175810
LeftHandThumb1 -26.253704 0.000000 33.147579
RightShoulder -10.229583 -6.562122 -6.883657
RightArm 11.555608 35.320267 14.266833
RightForeArm -31.777856 -0.000000 4.338059
RightHand -6.645398 0.000000 7.161798
RightHandThumb1 -24.326973 -0.000000 -32.862282
LeftUpLeg 1.023556 10.231951 2.706660
LeftLeg -4.603800 -0.000000 0.000000
LeftFoot -19.476710 24.602579 -15.516783
LeftToeBase 23.992627 -0.000000 -0.000000
RightUpLeg 0.112093 -8.362247 -1.154764
RightLeg -2.193714 -0.000000 0.000000
RightFoot -21.215261 -23.400293 18.528305
RightToeBase 23.293363 -0.000000 -0.000000
27
root 19.407437 35.616649 -22.784877 -173.229891 -1.395233 -179.310913
Spine -18.969454 -0.535045 -0.491181
Head 8.984863 -1.207018 1.419164
LeftShoulder -9.547750 -30.741350 16.355216
LeftArm 4.215881 3.714635 -10.718016
LeftForeArm 3.101684 0.000000 -3.211002
LeftHand -8.862697 -0.000000 -5.183754
LeftHandThumb1 -26.253704 0.000000 33.147579
RightShoulder -10.209694 -6.538670 -6.901033
RightArm 11.491403 35.306173 14.230723
RightForeArm -31.799295 -0.000000 4.338273
RightHand -6.616901 -0.000000 7.159218
RightHandThumb1 -24.326973 -0.000000 -32.862282
LeftUpLeg 1.041657 10.229521 2.713253
LeftLeg -4.609056 -0.000000 0.000000
LeftFoot -19.478751 24.606574 -15.512896
LeftToeBase 23.993757 -0.000000 -0.000000
RightUpLeg 0.129088 -8.361079 -1.148285
RightLeg -2.189779 -0.000000 0.000000
RightFoot -21.196202 -23.340398 18.652452
RightToeBase 22.948004 -0.000000 -0.000000
28
root 19.406102 35.616089 -22.785964 -173.240556 -1.404283 -179.315485
Spine -18.954996 -0.527826 -0.487134
Head 8.972558 -1.210713 1.397196
LeftShoulder -9.529050 -30.738004 16.352499
LeftArm 4.194893 3.696185 -10.723024
LeftForeArm 3.085731 0.000000 -3.211677
LeftHand -8.848750 0.000000 -5.200772
LeftHandThumb1 -26.253704 0.000000 33.147579
RightShoulder -10.197902 -6.515877 -6.926915
RightArm 11.436055 35.308458 14.212523
RightForeArm -31.816024 0.000000 4.343856
RightHand -6.621331 -0.000000 7.140335
RightHandThumb1 -24.326973 -0.000000 -32.862282
LeftUpLeg 1.052146 10.208990 2.710964
LeftLeg -4.604838 -0.000000 0.000000
LeftFoot -19.487731 24.607313 -15.502849
LeftToeBase 24.010242 -0.000000 -0.000000
RightUpLeg 0.146319 -8.378671 -1.158571
RightLeg -2.198105 -0.000000 0.000000
RightFoot -21.211157 -23.380793 18.510355
RightToeBase 23.277273 -0.000000 -0.000000
29
root 19.405276 35.616259 -22.787310 -173.253192 -1.410065 -179.310050
Spine -18.931598 -0.525561 -0.465867
Head 8.950946 -1.164275 1.379190
LeftShoulder -9.555884 -30.727639 16.345375
LeftArm 4.239249 3.661333 -10.712033
LeftForeArm 3.090656 -0.000000 -3.241655
LeftHand -8.880541 -0.000000 -5.259622
LeftHandThumb1 -26.253704 0.000000 33.147579
RightShoulder -10.184960 -6.504792 -6.957042
RightArm 11.390471 35.313551 14.203563
RightForeArm -31.808419 -0.000000 4.359379
RightHand -6.652745 -0.000000 7.132672
RightHandThumb1 -24.326973 -0.000000 -32.862282
LeftUpLeg 1.065495 10.213413 2.717600
LeftLeg -4.605374 -0.000000 0.000000
LeftFoot -19.478856 24.607215 -15.488429
LeftToeBase 24.005231 -0.000000 -0.000000
RightUpLeg 0.164455 -8.383424 -1.154784
RightLeg -2.200779 -0.000000 0.000000
RightFoot -21.188851 -23.328052 18.661705
RightToeBase 22.944553 -0.000000 -0.000000
30
root 19.403764 35.615763 -22.788916 -173.274315 -1.412587 -179.317191
Spine -18.903672 -0.517327 -0.468570
Head 8.940535 -1.159751 1.374984
LeftShoulder -9.534119 -30.751572 16.348056
LeftArm 4.187881 3.651514 -10.713307
LeftForeArm 3.039330 -0.000000 -3.228449
LeftHand -8.839872 -0.000000 -5.222837
LeftHandThumb1 -26.253704 0.000000 33.147579
RightShoulder -10.189331 -6.536141 -6.955762
RightArm 11.384101 35.366583 14.191109
RightForeArm -31.823518 -0.000000 4.348419
RightHand -6.649847 0.000000 7.128229
RightHandThumb1 -24.326973 -0.000000 -32.862282
LeftUpLeg 1.094588 10.214258 2.711524
LeftLeg -4.616858 -0.000000 0.000000
LeftFoot -19.484227 24.606857 -15.502416
LeftToeBase 24.017691 -0.000000 -0.000000
RightUpLeg 0.184750 -8.403597 -1.170493
RightLeg -2.198962 -0.000000 0.000000
RightFoot -21.186755 -23.349222 18.585856
RightToeBase 23.376055 -0.000000 -0.000000
31
root 19.403223 35.615927 -22.790016 -173.283439 -1.421098 -179.314037
Spine -18.886706 -0.505646 -0.459979
Head 8.914407 -1.147488 1.370923
LeftShoulder -9.524052 -30.748006 16.337610
LeftArm 4.182948 3.619675 -10.708175
LeftForeArm 2.993173 -0.000000 -3.230724
LeftHand -8.822003 0.000000 -5.221234
LeftHandThumb1 -26.253704 0.000000 33.147579
RightShoulder -10.184678 -6.522160 -6.985443
RightArm 11.323535 35.368531 14.182271
RightForeArm -31.808006 -0.000000 4.361022
RightHand -6.647797 -0.000000 7.117551
RightHandThumb1 -24.326973 -0.000000 -32.862282
LeftUpLeg 1.106104 10.194647 2.717171
LeftLeg -4.619059 -0.000000 0.000000
LeftFoot -19.493812 24.614757 -15.506709
LeftToeBase 24.049116 -0.000000 -0.000000
RightUpLeg 0.199828 -8.401808 -1.165101
RightLeg -2.202671 -0.000000 0.000000
RightFoot -21.184596 -23.310060 18.704989
RightToeBase 22.858759 -0.000000 -0.000000
32
root 19.401088 35.614859 -22.793796 -173.322571 -1.426228 -179.314408
Spine -18.837643 -0.513846 -0.445703
Head 8.897105 -1.113933 1.364322
LeftShoulder -9.566144 -30.703979 16.362651
LeftArm 4.213368 3.654112 -10.728727
LeftForeArm 2.873228 -0.000000 -3.252093
LeftHand -8.810266 -0.000000 -5.231231
LeftHandThumb1 -26.253704 0.000000 33.147579
RightShoulder -10.139309 -6.473564 -7.018498
RightArm 11.234359 35.357070 14.141968
RightForeArm -31.846238 -0.000000 4.356572
RightHand -6.642522 -0.000000 7.113628
RightHandThumb1 -24.326973 -0.000000 -32.862282
LeftUpLeg 1.160139 10.195245 2.723259
LeftLeg -4.635445 -0.000000 0.000000
LeftFoot -19.481144 24.603504 -15.487566
LeftToeBase 24.044524 -0.000000 -0.000000
RightUpLeg 0.252830 -8.417632 -1.175814
RightLeg -2.212667 -0.000000 0.000000
RightFoot -21.187011 -23.300124 18.704332
RightToeBase 22.828120 -0.000000 -0.000000
33
root 19.399617 35.614733 -22.794127 -173.341132 -1.437471 -179.321783
Spine -18.803630 -0.515150 -0.447748
Head 8.870740 -1.098228 1.371627
LeftShoulder -9.553000 -30.723701 16.360362
LeftArm 4.191683 3.642065 -10.722596
LeftForeArm 2.830880 -0.000000 -3.263698
LeftHand -8.823051 -0.000000 -5.196104
LeftHandThumb1 -26.253704 0.000000 33.147579
RightShoulder -10.141655 -6.473369 -7.026139
RightArm 11.207993 35.376261 14.118350
RightForeArm -31.905946 -0.000000 4.354287
RightHand -6.631642 -0.000000 7.183498
RightHandThumb1 -24.326973 -0.000000 -32.862282
LeftUpLeg 1.179342 10.168055 2.718596
LeftLeg -4.636316 -0.000000 0.000000
LeftFoot -19.481335 24.608842 -15.496167
LeftToeBase 24.024623 -0.000000 -0.000000
RightUpLeg 0.271814 -8.445292 -1.189029
RightLeg -2.212508 -0.000000 0.000000
RightFoot -21.219631 -23.377918 18.510600
RightToeBase 23.334015 -0.000000 -0.000000
